<?xml version="1.0" encoding="UTF-8"?>
<!DOCTYPE svg PUBLIC "-//W3C//DTD SVG 1.1//EN" "http://www.w3.org/Graphics/SVG/1.1/DTD/svg11.dtd">
<svg xmlns="http://www.w3.org/2000/svg" version="1.1" width="850px" height="808px" style="shape-rendering:geometricPrecision; text-rendering:geometricPrecision; image-rendering:optimizeQuality; fill-rule:evenodd; clip-rule:evenodd" xmlns:xlink="http://www.w3.org/1999/xlink">
<g><path style="opacity:0.844" fill="#fefffe" d="M 422.5,-0.5 C 424.167,-0.5 425.833,-0.5 427.5,-0.5C 558.787,94.4896 689.787,189.99 820.5,286C 829.879,293.016 839.546,299.516 849.5,305.5C 849.5,307.167 849.5,308.833 849.5,310.5C 797.079,472.795 743.413,637.961 688.5,806C 512.833,806.667 337.167,806.667 161.5,806C 108.068,643.777 56.0677,484.11 5.5,327C 5.83333,326.667 6.16667,326.333 6.5,326C 3.01045,319.543 1.34378,312.71 1.5,305.5C 141.875,203.443 282.208,101.443 422.5,-0.5 Z M 743.5,246.5 C 773.955,268.449 804.289,290.615 834.5,313C 813.981,373.804 793.981,434.97 774.5,496.5C 745.196,588.418 715.196,680.418 684.5,772.5C 682.672,779.969 680.672,787.302 678.5,794.5C 509.5,794.5 340.5,794.5 171.5,794.5C 156.814,745.558 141.148,697.058 124.5,649C 108.559,598.078 92.2254,547.245 75.5,496.5C 55.9581,434.94 35.9581,373.773 15.5,313C 35.5376,297.659 55.871,282.826 76.5,268.5C 193.173,183.532 309.34,98.865 425,14.5C 530.779,91.5605 636.946,168.894 743.5,246.5 Z M 456.5,250.5 C 434.831,250.667 413.164,250.5 391.5,250C 402.667,236.833 413.833,223.667 425,210.5C 435.714,223.709 446.214,237.042 456.5,250.5 Z M 410.5,214.5 C 412.646,214.696 412.812,215.696 411,217.5C 402,228.5 393,239.5 384,250.5C 378.699,247.364 373.532,244.03 368.5,240.5C 381.34,231.91 394.673,224.077 408.5,217C 409.381,216.292 410.047,215.458 410.5,214.5 Z M 436.5,214.5 C 450.768,222.304 465.101,230.137 479.5,238C 480.357,238.689 481.023,239.522 481.5,240.5C 475.585,243.707 469.752,247.04 464,250.5C 455.067,238.29 445.9,226.29 436.5,214.5 Z M 363.5,245.5 C 369.503,248.499 375.169,251.999 380.5,256C 374.803,270.756 369.303,285.59 364,300.5C 363.5,282.17 363.333,263.836 363.5,245.5 Z M 484.5,245.5 C 485.832,254.308 486.498,263.475 486.5,273C 486.333,282.167 486.167,291.333 486,300.5C 479.943,285.505 473.776,270.505 467.5,255.5C 473.385,252.396 479.052,249.063 484.5,245.5 Z M 390.5,258.5 C 412.663,257.337 434.996,257.17 457.5,258C 446.766,277.44 435.932,296.94 425,316.5C 413.726,296.938 402.226,277.605 390.5,258.5 Z M 367.5,309.5 C 373.017,293.454 378.851,277.454 385,261.5C 396.545,280.086 407.711,298.919 418.5,318C 401.471,315.59 384.471,312.757 367.5,309.5 Z M 462.5,261.5 C 469.612,277.564 476.612,293.731 483.5,310C 466.12,312.863 448.786,315.53 431.5,318C 442.282,299.258 452.615,280.424 462.5,261.5 Z M 372.5,318.5 C 372.917,317.876 373.584,317.543 374.5,317.5C 390.198,320.17 405.864,322.837 421.5,325.5C 421.83,332.2 421.497,338.866 420.5,345.5C 404.769,335.969 388.769,326.969 372.5,318.5 Z M 473.5,317.5 C 474.873,317.343 476.207,317.51 477.5,318C 461.337,326.914 445.337,336.08 429.5,345.5C 428.503,338.866 428.17,332.2 428.5,325.5C 442.719,322.909 457.052,320.742 471.5,319C 472.416,318.722 473.082,318.222 473.5,317.5 Z"/></g>
<g><path style="opacity:0.65" fill="#fefffe" d="M 423.5,199.5 C 446.658,211.8 469.491,224.8 492,238.5C 492.667,264.5 492.667,290.5 492,316.5C 469.647,329.532 447.313,342.532 425,355.5C 402.667,342.5 380.333,329.5 358,316.5C 357.333,290.5 357.333,264.5 358,238.5C 379.257,226.456 400.424,214.289 421.5,202C 422.381,201.292 423.047,200.458 423.5,199.5 Z M 456.5,250.5 C 446.214,237.042 435.714,223.709 425,210.5C 413.833,223.667 402.667,236.833 391.5,250C 413.164,250.5 434.831,250.667 456.5,250.5 Z M 410.5,214.5 C 410.047,215.458 409.381,216.292 408.5,217C 394.673,224.077 381.34,231.91 368.5,240.5C 373.532,244.03 378.699,247.364 384,250.5C 393,239.5 402,228.5 411,217.5C 412.812,215.696 412.646,214.696 410.5,214.5 Z M 436.5,214.5 C 445.9,226.29 455.067,238.29 464,250.5C 469.752,247.04 475.585,243.707 481.5,240.5C 481.023,239.522 480.357,238.689 479.5,238C 465.101,230.137 450.768,222.304 436.5,214.5 Z M 363.5,245.5 C 363.333,263.836 363.5,282.17 364,300.5C 369.303,285.59 374.803,270.756 380.5,256C 375.169,251.999 369.503,248.499 363.5,245.5 Z M 484.5,245.5 C 479.052,249.063 473.385,252.396 467.5,255.5C 473.776,270.505 479.943,285.505 486,300.5C 486.167,291.333 486.333,282.167 486.5,273C 486.498,263.475 485.832,254.308 484.5,245.5 Z M 390.5,258.5 C 402.226,277.605 413.726,296.938 425,316.5C 435.932,296.94 446.766,277.44 457.5,258C 434.996,257.17 412.663,257.337 390.5,258.5 Z M 367.5,309.5 C 384.471,312.757 401.471,315.59 418.5,318C 407.711,298.919 396.545,280.086 385,261.5C 378.851,277.454 373.017,293.454 367.5,309.5 Z M 462.5,261.5 C 452.615,280.424 442.282,299.258 431.5,318C 448.786,315.53 466.12,312.863 483.5,310C 476.612,293.731 469.612,277.564 462.5,261.5 Z M 372.5,318.5 C 388.769,326.969 404.769,335.969 420.5,345.5C 421.497,338.866 421.83,332.2 421.5,325.5C 405.864,322.837 390.198,320.17 374.5,317.5C 373.584,317.543 372.917,317.876 372.5,318.5 Z M 473.5,317.5 C 473.082,318.222 472.416,318.722 471.5,319C 457.052,320.742 442.719,322.909 428.5,325.5C 428.17,332.2 428.503,338.866 429.5,345.5C 445.337,336.08 461.337,326.914 477.5,318C 476.207,317.51 474.873,317.343 473.5,317.5 Z"/></g>
<g><path style="opacity:0.787" fill="#fefffe" d="M 319.5,385.5 C 389.834,385.333 460.167,385.5 530.5,386C 532.635,386.759 533.968,388.259 534.5,390.5C 534.181,394.295 533.181,397.795 531.5,401C 460.5,401.667 389.5,401.667 318.5,401C 316.819,397.795 315.819,394.295 315.5,390.5C 316.16,388.185 317.493,386.519 319.5,385.5 Z"/></g>
<g><path style="opacity:0.794" fill="#fefffe" d="M 318.5,415.5 C 389.501,415.333 460.501,415.5 531.5,416C 533.099,417.066 534.099,418.566 534.5,420.5C 533.583,423.758 533.249,427.091 533.5,430.5C 461.167,431.833 388.833,431.833 316.5,430.5C 316.751,427.091 316.417,423.758 315.5,420.5C 316.065,418.491 317.065,416.824 318.5,415.5 Z"/></g>
<g><path style="opacity:0.704" fill="#fefffe" d="M 321.5,462.5 C 354.5,462.5 387.5,462.5 420.5,462.5C 420.048,466.163 419.548,469.83 419,473.5C 417.262,474.127 415.429,474.46 413.5,474.5C 391.523,471.89 369.523,469.39 347.5,467C 338.855,466.073 330.189,465.573 321.5,465.5C 321.5,464.5 321.5,463.5 321.5,462.5 Z"/></g>
<g><path style="opacity:0.934" fill="#fefffe" d="M 425.5,462.5 C 461.5,462.5 497.5,462.5 533.5,462.5C 531.166,475.169 528.833,487.836 526.5,500.5C 515.918,500.18 505.418,500.513 495,501.5C 489.186,536.198 483.186,570.864 477,605.5C 461.911,606.491 446.745,606.824 431.5,606.5C 437.223,571.101 443.223,535.767 449.5,500.5C 439.167,500.5 428.833,500.5 418.5,500.5C 420.833,487.833 423.167,475.167 425.5,462.5 Z"/></g>
<g><path style="opacity:0.713" fill="#fefffe" d="M 318.5,482.5 C 320.801,483.06 323.134,483.56 325.5,484C 355.832,484.5 386.165,484.667 416.5,484.5C 415.979,488.481 415.646,492.481 415.5,496.5C 383.496,493.303 351.496,490.136 319.5,487C 316.581,485.457 316.248,483.957 318.5,482.5 Z"/></g>
<g><path style="opacity:0.639" fill="#fefffe" d="M 345.5,504.5 C 378.155,505.424 410.821,505.757 443.5,505.5C 443.261,509.842 442.927,514.176 442.5,518.5C 411.176,515.112 379.842,511.945 348.5,509C 347.241,508.077 345.908,507.243 344.5,506.5C 344.863,505.817 345.196,505.15 345.5,504.5 Z"/></g>
<g><path style="opacity:0.585" fill="#fefffe" d="M 341.5,526.5 C 374.168,526.333 406.835,526.5 439.5,527C 440.081,527.893 440.415,528.893 440.5,530C 439.308,533.407 438.641,536.907 438.5,540.5C 406.054,537.215 373.721,533.548 341.5,529.5C 341.5,528.5 341.5,527.5 341.5,526.5 Z"/></g>
<g><path style="opacity:0.617" fill="#fefffe" d="M 337.5,548.5 C 370.5,548.5 403.5,548.5 436.5,548.5C 436.575,552.981 435.908,557.314 434.5,561.5C 402.298,558.903 369.965,555.57 337.5,551.5C 337.5,550.5 337.5,549.5 337.5,548.5 Z"/></g>
<g><path style="opacity:0.634" fill="#fefffe" d="M 334.5,570.5 C 367.167,570.5 399.833,570.5 432.5,570.5C 432.515,574.56 432.015,578.56 431,582.5C 430.275,583.059 429.442,583.392 428.5,583.5C 400.805,580.755 373.139,577.922 345.5,575C 341.532,574.058 337.532,573.225 333.5,572.5C 333.863,571.817 334.196,571.15 334.5,570.5 Z"/></g>
<g><path style="opacity:0.633" fill="#fefffe" d="M 329.5,592.5 C 362.5,592.5 395.5,592.5 428.5,592.5C 428.261,596.842 427.927,601.176 427.5,605.5C 394.761,602.352 362.094,599.019 329.5,595.5C 329.5,594.5 329.5,593.5 329.5,592.5 Z"/></g>
</svg>
